{
    "asset" : {
        "generator" : "Khronos glTF Blender I/O v1.2.75",
        "version" : "2.0"
    },
    "scene" : 0,
    "scenes" : [
        {
            "name" : "Scene",
            "nodes" : [
                0
            ]
        }
    ],
    "nodes" : [
        {
            "mesh" : 0,
            "name" : "high_1",
            "rotation" : [
                0.7071068286895752,
                0,
                0,
                0.7071067094802856
            ],
            "scale" : [
                0.02539999969303608,
                0.02539999969303608,
                0.02539999969303608
            ]
        }
    ],
    "materials" : [
        {
            "doubleSided" : true,
            "emissiveFactor" : [
                0,
                0,
                0
            ],
            "name" : "Material #26",
            "pbrMetallicRoughness" : {
                "baseColorTexture" : {
                    "index" : 0,
                    "texCoord" : 0
                },
                "metallicFactor" : 0,
                "roughnessFactor" : 0.35231196880340576
            }
        },
        {
            "doubleSided" : true,
            "emissiveFactor" : [
                0,
                0,
                0
            ],
            "name" : "01 - Default",
            "normalTexture" : {
                "index" : 1,
                "texCoord" : 0
            },
            "pbrMetallicRoughness" : {
                "baseColorTexture" : {
                    "index" : 2,
                    "texCoord" : 0
                },
                "metallicFactor" : 0,
                "roughnessFactor" : 0.05833333358168602
            }
        }
    ],
    "meshes" : [
        {
            "name" : "\u30e1\u30c3\u30b7\u30e5",
            "primitives" : [
                {
                    "attributes" : {
                        "POSITION" : 0,
                        "NORMAL" : 1,
                        "TEXCOORD_0" : 2
                    },
                    "indices" : 3,
                    "material" : 0
                },
                {
                    "attributes" : {
                        "POSITION" : 4,
                        "NORMAL" : 5,
                        "TEXCOORD_0" : 6
                    },
                    "indices" : 7,
                    "material" : 1
                }
            ]
        }
    ],
    "textures" : [
        {
            "source" : 0
        },
        {
            "source" : 1
        },
        {
            "source" : 2
        }
    ],
    "images" : [
        {
            "bufferView" : 4,
            "mimeType" : "image/jpeg",
            "name" : "plates"
        },
        {
            "bufferView" : 9,
            "mimeType" : "image/jpeg",
            "name" : "chicken_normal"
        },
        {
            "bufferView" : 10,
            "mimeType" : "image/jpeg",
            "name" : "chicken"
        }
    ],
    "accessors" : [
        {
            "bufferView" : 0,
            "componentType" : 5126,
            "count" : 1223,
            "max" : [
                8.002875328063965,
                8.001920700073242,
                -0.1315326690673828
            ],
            "min" : [
                -8.002875328063965,
                -8.00193977355957,
                -1.5688998699188232
            ],
            "type" : "VEC3"
        },
        {
            "bufferView" : 1,
            "componentType" : 5126,
            "count" : 1223,
            "type" : "VEC3"
        },
        {
            "bufferView" : 2,
            "componentType" : 5126,
            "count" : 1223,
            "type" : "VEC2"
        },
        {
            "bufferView" : 3,
            "componentType" : 5123,
            "count" : 6264,
            "type" : "SCALAR"
        },
        {
            "bufferView" : 5,
            "componentType" : 5126,
            "count" : 16762,
            "max" : [
                7.244133949279785,
                6.47730016708374,
                -0.2862200140953064
            ],
            "min" : [
                -7.178656101226807,
                -6.3872599601745605,
                -7.3269758224487305
            ],
            "type" : "VEC3"
        },
        {
            "bufferView" : 6,
            "componentType" : 5126,
            "count" : 16762,
            "type" : "VEC3"
        },
        {
            "bufferView" : 7,
            "componentType" : 5126,
            "count" : 16762,
            "type" : "VEC2"
        },
        {
            "bufferView" : 8,
            "componentType" : 5123,
            "count" : 82176,
            "type" : "SCALAR"
        }
    ],
    "bufferViews" : [
        {
            "buffer" : 0,
            "byteLength" : 14676,
            "byteOffset" : 0
        },
        {
            "buffer" : 0,
            "byteLength" : 14676,
            "byteOffset" : 14676
        },
        {
            "buffer" : 0,
            "byteLength" : 9784,
            "byteOffset" : 29352
        },
        {
            "buffer" : 0,
            "byteLength" : 12528,
            "byteOffset" : 39136
        },
        {
            "buffer" : 0,
            "byteLength" : 43962,
            "byteOffset" : 51664
        },
        {
            "buffer" : 0,
            "byteLength" : 201144,
            "byteOffset" : 95628
        },
        {
            "buffer" : 0,
            "byteLength" : 201144,
            "byteOffset" : 296772
        },
        {
            "buffer" : 0,
            "byteLength" : 134096,
            "byteOffset" : 497916
        },
        {
            "buffer" : 0,
            "byteLength" : 164352,
            "byteOffset" : 632012
        },
        {
            "buffer" : 0,
            "byteLength" : 326508,
            "byteOffset" : 796364
        },
        {
            "buffer" : 0,
            "byteLength" : 437394,
            "byteOffset" : 1122872
        }
    ],
    "buffers" : [
        {
            "byteLength" : 1560268,
            "uri" : "data:application/octet-stream;base64,"
        }
    ]
}
